{"title":"Futurama.S06E06.Lethal.Inspection.HDTV.XviD-FQM-[tracker.BTARENA","uid":5710549,"size":183791626,"categoryP":"video","categoryS":"tv_shows","magnet":"?xt=urn:btih:7ecfe337bd79ccd25ad880abbdf56c2a04ae4087&amp;dn=Futurama.S06E06.Lethal.Inspection.HDTV.XviD-FQM-%5Btracker.BTARENA&amp;tr=udp%3A%2F%2Ftracker.openbittorrent.com%3A80&amp;tr=udp%3A%2F%2Fopen.demonii.com%3A1337&amp;tr=udp%3A%2F%2Ftracker.coppersurfer.tk%3A6969&amp;tr=udp%3A%2F%2Fexodus.desync.com%3A6969","seeders":1,"leechers":0,"uploader":null,"files":2,"time":1279878164,"description":" &lt;a href=&quot;http://www.btarena.org/tv/futurama-s06e06-lethal-inspection-hdtv-xvid-fqm&quot; rel=&quot;nofollow&quot; target=&quot;_NEW&quot;&gt;http://www.btarena.org/tv/futurama-s06e06-lethal-inspection-hdtv-xvid-fqm&lt;/a&gt;\n\n\n\n\nVideo\nID                               : 0\nFormat                           : MPEG-4 Visual\nFormat profile                   : Advanced Simple@L5\nFormat settings, BVOP            : Yes\nFormat settings, QPel            : No\nFormat settings, GMC             : No warppoints\nFormat settings, Matrix          : Default (H.263)\nCodec ID                         : XVID\nCodec ID/Hint                    : XviD\nDuration                         : 21mn 0s\nBit rate                         : 1 001 Kbps\nWidth                            : 624 pixels\nHeight                           : 352 pixels\nDisplay aspect ratio             : 16:9\nFrame rate                       : 23.976 fps\nResolution                       : 8 bits\nColorimetry                      : 4:2:0\nScan type                        : Progressive\nBits/(Pixel*Frame)               : 0.190\nStream size                      : 150 MiB (86%)\nWriting library                  : XviD 1.2.1 (UTC 2008-12-04)\n\nAudio\nID                               : 1\nFormat                           : MPEG Audio\nFormat version                   : Version 1\nFormat profile                   : Layer 3\nCodec ID                         : 55\nCodec ID/Hint                    : MP3\nDuration                         : 21mn 0s\nBit rate mode                    : Variable\nBit rate                         : 128 Kbps\nChannel(s)                       : 2 channels\nSampling rate                    : 48.0 KHz\nStream size                      : 23.0 MiB (13%)\nAlignment                        : Aligned on interleaves\nInterleave, duration             : 24 ms (0.58 video frame)","torrent":{"xt":"urn:btih:7ecfe337bd79ccd25ad880abbdf56c2a04ae4087","amp;dn":"Futurama.S06E06.Lethal.Inspection.HDTV.XviD-FQM-%5Btracker.BTARENA","amp;tr":["udp%3A%2F%2Ftracker.openbittorrent.com%3A80","udp%3A%2F%2Fopen.demonii.com%3A1337","udp%3A%2F%2Ftracker.coppersurfer.tk%3A6969","udp%3A%2F%2Fexodus.desync.com%3A6969"],"infoHash":"7ecfe337bd79ccd25ad880abbdf56c2a04ae4087","infoHashBuffer":{"type":"Buffer","data":[126,207,227,55,189,121,204,210,90,216,128,171,189,245,108,42,4,174,64,135]},"announce":[],"urlList":[]}}